<svg xmlns="http://www.w3.org/2000/svg" width="330" height="69" viewBox="0 0 330 69">
  <g id="Vektor-Smartobjekt" transform="translate(-123.677 -363.623)">
    <path id="Path_7" data-name="Path 7" d="M335.05,398.176l11.891-6.218-1.38-2.555-10.511,5.5Z" fill="#2e2e2e"/>
    <path id="Path_8" data-name="Path 8" d="M356.065,394.9l-10.511-5.5-1.38,2.555,11.891,6.218Z" fill="#2e2e2e"/>
    <g id="Group_1" data-name="Group 1">
      <path id="Path_9" data-name="Path 9" d="M182.428,405.427h-2.742v9.737h-2.343v-9.737H175v-1.889h2.343V401.11a7.229,7.229,0,0,1,.237-1.9,3.9,3.9,0,0,1,.773-1.509,3.719,3.719,0,0,1,1.371-1,5.026,5.026,0,0,1,2.031-.369,5.607,5.607,0,0,1,1.471.172l-.274,1.987c-.183-.05-.366-.09-.548-.123a3.566,3.566,0,0,0-.623-.049,2.191,2.191,0,0,0-1.084.233,1.662,1.662,0,0,0-.636.626,2.536,2.536,0,0,0-.3.9,7.073,7.073,0,0,0-.075,1.042v2.428h2.742Z" fill="#2e2e2e"/>
      <path id="Path_10" data-name="Path 10" d="M184.572,404.838c-.017-.491-.042-.924-.075-1.3h2.219q.05.44.075,1.018t.025.943h.075a4.037,4.037,0,0,1,1.459-1.655,3.857,3.857,0,0,1,2.156-.626,3.7,3.7,0,0,1,.922.1l-.1,2.134a4.441,4.441,0,0,0-1.072-.123,3.3,3.3,0,0,0-1.471.306,3,3,0,0,0-1.034.821,3.46,3.46,0,0,0-.611,1.191,4.937,4.937,0,0,0-.2,1.409v6.107H184.6V406.04Q184.6,405.574,184.572,404.838Z" fill="#2e2e2e"/>
      <path id="Path_11" data-name="Path 11" d="M204.217,409.253v.393a3.109,3.109,0,0,1-.025.392h-9.4a3.391,3.391,0,0,0,.337,1.376,3.615,3.615,0,0,0,.835,1.121,3.884,3.884,0,0,0,1.209.742,4.284,4.284,0,0,0,3.527-.248,4.186,4.186,0,0,0,1.371-1.25l1.645,1.3a5.864,5.864,0,0,1-2.231,1.82,7.268,7.268,0,0,1-5.348.142,5.617,5.617,0,0,1-3.266-3.165,6.393,6.393,0,0,1-.474-2.5,6.563,6.563,0,0,1,.462-2.489,5.682,5.682,0,0,1,1.287-1.95,5.906,5.906,0,0,1,1.949-1.264,6.8,6.8,0,0,1,4.784-.037,4.892,4.892,0,0,1,1.8,1.2,5.4,5.4,0,0,1,1.136,1.9A7.414,7.414,0,0,1,204.217,409.253Zm-2.393-.932a4.347,4.347,0,0,0-.236-1.287,2.858,2.858,0,0,0-1.645-1.741,3.658,3.658,0,0,0-1.434-.258,3.823,3.823,0,0,0-1.408.258,3.6,3.6,0,0,0-1.945,1.741,3.274,3.274,0,0,0-.362,1.287Z" fill="#2e2e2e"/>
      <path id="Path_12" data-name="Path 12" d="M210.2,399.343a1.367,1.367,0,0,1-.458,1.055,1.578,1.578,0,0,1-1.1.417,1.509,1.509,0,0,1-1.088-.43,1.392,1.392,0,0,1-.446-1.043,1.425,1.425,0,0,1,.446-1.067,1.514,1.514,0,0,1,1.088-.428,1.558,1.558,0,0,1,1.1.428A1.406,1.406,0,0,1,210.2,399.343Zm-.374,15.82h-2.343V403.538h2.343Z" fill="#2e2e2e"/>
      <path id="Path_13" data-name="Path 13" d="M224.959,409.253v.393a3.112,3.112,0,0,1-.025.392h-9.4a3.378,3.378,0,0,0,.337,1.376,3.615,3.615,0,0,0,.835,1.121,3.875,3.875,0,0,0,1.21.742,4.284,4.284,0,0,0,3.527-.248,4.186,4.186,0,0,0,1.371-1.25l1.645,1.3a5.87,5.87,0,0,1-2.231,1.82,7.268,7.268,0,0,1-5.348.142,5.617,5.617,0,0,1-3.266-3.165,6.393,6.393,0,0,1-.474-2.5,6.549,6.549,0,0,1,.462-2.489,5.661,5.661,0,0,1,1.287-1.95,5.9,5.9,0,0,1,1.948-1.264,6.8,6.8,0,0,1,4.784-.037,4.886,4.886,0,0,1,1.8,1.2,5.4,5.4,0,0,1,1.137,1.9A7.415,7.415,0,0,1,224.959,409.253Zm-2.393-.932a4.324,4.324,0,0,0-.237-1.287,2.858,2.858,0,0,0-1.645-1.741,3.654,3.654,0,0,0-1.433-.258,3.829,3.829,0,0,0-1.409.258,3.6,3.6,0,0,0-1.945,1.741,3.285,3.285,0,0,0-.361,1.287Z" fill="#2e2e2e"/>
      <path id="Path_14" data-name="Path 14" d="M231.018,396.622v8.266h.075a4.783,4.783,0,0,1,.573-.613,4.37,4.37,0,0,1,.836-.589,5.3,5.3,0,0,1,1.135-.454,5.384,5.384,0,0,1,1.47-.184,5.694,5.694,0,0,1,2.344.478,5.606,5.606,0,0,1,1.844,1.313,5.908,5.908,0,0,1,1.2,1.962,6.849,6.849,0,0,1,.423,2.428,7.152,7.152,0,0,1-.41,2.44,5.964,5.964,0,0,1-1.172,1.987A5.614,5.614,0,0,1,237.487,415a5.785,5.785,0,0,1-2.455.5,5.361,5.361,0,0,1-2.381-.54,4.04,4.04,0,0,1-1.732-1.569h-.05v1.765h-2.842V396.622Zm6.856,12.607a4.516,4.516,0,0,0-.212-1.361,3.779,3.779,0,0,0-.635-1.215,3.2,3.2,0,0,0-1.072-.87,3.3,3.3,0,0,0-1.522-.331,3.082,3.082,0,0,0-1.47.343,3.722,3.722,0,0,0-1.807,2.109,4.17,4.17,0,0,0-.237,1.373,4.064,4.064,0,0,0,.237,1.362,3.739,3.739,0,0,0,.7,1.214,3.606,3.606,0,0,0,1.11.871,3.491,3.491,0,0,0,2.992-.012,3.325,3.325,0,0,0,1.072-.883,3.759,3.759,0,0,0,.635-1.226A4.637,4.637,0,0,0,237.873,409.229Z" fill="#2e2e2e"/>
      <path id="Path_15" data-name="Path 15" d="M251.236,413.668h-.076a3.316,3.316,0,0,1-1.446,1.288,4.986,4.986,0,0,1-2.268.5,6.569,6.569,0,0,1-1.509-.184,4.5,4.5,0,0,1-1.445-.613,3.567,3.567,0,0,1-1.1-1.128,3.21,3.21,0,0,1-.436-1.73,2.9,2.9,0,0,1,.76-2.109,4.926,4.926,0,0,1,1.957-1.2,11.208,11.208,0,0,1,2.656-.552q1.457-.135,2.853-.134v-.294a1.81,1.81,0,0,0-.81-1.631,3.462,3.462,0,0,0-1.932-.527,4.4,4.4,0,0,0-1.821.392,4.944,4.944,0,0,0-1.446.957l-1.545-1.79a6.771,6.771,0,0,1,2.356-1.4,8.147,8.147,0,0,1,2.705-.466,6.746,6.746,0,0,1,2.63.441,4.274,4.274,0,0,1,1.633,1.153,4.114,4.114,0,0,1,.835,1.594,6.782,6.782,0,0,1,.236,1.766v7.161h-2.791Zm-.051-3.875h-.672q-.724,0-1.521.061a6.7,6.7,0,0,0-1.471.27,3.157,3.157,0,0,0-1.123.589,1.3,1.3,0,0,0-.449,1.042,1.231,1.231,0,0,0,.188.7,1.409,1.409,0,0,0,.485.454,2.2,2.2,0,0,0,.674.245,3.917,3.917,0,0,0,.747.074,3.152,3.152,0,0,0,2.343-.809,3.008,3.008,0,0,0,.8-2.208Z" fill="#2e2e2e"/>
      <path id="Path_16" data-name="Path 16" d="M268.437,415.164H265.6v-1.889h-.05a3.829,3.829,0,0,1-1.383,1.558,4.03,4.03,0,0,1-2.331.675,4.559,4.559,0,0,1-2.007-.405,3.953,3.953,0,0,1-1.373-1.067,4.3,4.3,0,0,1-.785-1.521,6.331,6.331,0,0,1-.249-1.766V403.39h2.992v6.525a8.094,8.094,0,0,0,.075,1.079,2.857,2.857,0,0,0,.323,1.018,2.125,2.125,0,0,0,.687.748,2.042,2.042,0,0,0,1.158.294,2.586,2.586,0,0,0,2.107-1,3.2,3.2,0,0,0,.511-1.018,4,4,0,0,0,.175-1.165V403.39h2.991Z" fill="#2e2e2e"/>
      <path id="Path_17" data-name="Path 17" d="M284.194,403.39V414.11a9.713,9.713,0,0,1-.4,2.882,5.347,5.347,0,0,1-3.341,3.568,8.376,8.376,0,0,1-3.017.491,10.345,10.345,0,0,1-1.533-.122,10.715,10.715,0,0,1-1.6-.369,9.585,9.585,0,0,1-1.509-.612,7.323,7.323,0,0,1-1.3-.834l1.72-2.282a6.176,6.176,0,0,0,1.969,1.239,6.061,6.061,0,0,0,2.219.43,4.7,4.7,0,0,0,1.808-.308,2.906,2.906,0,0,0,1.171-.849,3.315,3.315,0,0,0,.624-1.281,6.609,6.609,0,0,0,.187-1.624v-.861h-.05a4.218,4.218,0,0,1-1.658,1.326,5.414,5.414,0,0,1-2.256.458,5.92,5.92,0,0,1-2.444-.491,5.532,5.532,0,0,1-1.858-1.325,6.045,6.045,0,0,1-1.184-1.95,6.608,6.608,0,0,1-.424-2.367,6.987,6.987,0,0,1,.411-2.4,5.851,5.851,0,0,1,1.172-1.961,5.565,5.565,0,0,1,1.844-1.324,5.823,5.823,0,0,1,2.431-.491,5.5,5.5,0,0,1,2.368.515,3.974,3.974,0,0,1,1.745,1.594h.05V403.39Zm-6.383,2.061a3.442,3.442,0,0,0-1.458.294,3.121,3.121,0,0,0-1.072.795,3.53,3.53,0,0,0-.674,1.186,4.455,4.455,0,0,0-.236,1.466,4.02,4.02,0,0,0,.236,1.369,3.9,3.9,0,0,0,.674,1.186,3.278,3.278,0,0,0,1.072.843,3.159,3.159,0,0,0,1.433.318,3.5,3.5,0,0,0,1.484-.305,3.426,3.426,0,0,0,1.121-.82,3.646,3.646,0,0,0,.711-1.185,4.031,4.031,0,0,0,.249-1.406,4.2,4.2,0,0,0-.249-1.442,3.609,3.609,0,0,0-.711-1.2,3.294,3.294,0,0,0-1.109-.806A3.535,3.535,0,0,0,277.811,405.452Z" fill="#2e2e2e"/>
      <path id="Path_18" data-name="Path 18" d="M287.783,403.39h2.866v1.963h.051a4.3,4.3,0,0,1,1.4-1.668,3.519,3.519,0,0,1,2.094-.638c.116,0,.24,0,.373.012a1.486,1.486,0,0,1,.35.061v2.7a4.439,4.439,0,0,0-.511-.1,3.759,3.759,0,0,0-.412-.024,3.211,3.211,0,0,0-1.645.368,2.976,2.976,0,0,0-.973.883A3.12,3.12,0,0,0,290.9,408a4.01,4.01,0,0,0-.125.858v6.3h-2.991Z" fill="#2e2e2e"/>
      <path id="Path_19" data-name="Path 19" d="M307.777,415.164h-2.841v-1.889h-.051a3.825,3.825,0,0,1-1.383,1.558,4.025,4.025,0,0,1-2.331.675,4.561,4.561,0,0,1-2.007-.405,3.947,3.947,0,0,1-1.371-1.067,4.291,4.291,0,0,1-.786-1.521,6.3,6.3,0,0,1-.249-1.766V403.39h2.992v6.525a8.352,8.352,0,0,0,.075,1.079,2.859,2.859,0,0,0,.325,1.018,2.106,2.106,0,0,0,.685.748,2.045,2.045,0,0,0,1.159.294,2.589,2.589,0,0,0,2.107-1,3.185,3.185,0,0,0,.511-1.018,3.994,3.994,0,0,0,.174-1.165V403.39h2.992Z" fill="#2e2e2e"/>
      <path id="Path_20" data-name="Path 20" d="M311.367,403.39h2.842v1.889h.05a3.828,3.828,0,0,1,1.383-1.557,4.026,4.026,0,0,1,2.331-.674,4.567,4.567,0,0,1,2.007.4,3.945,3.945,0,0,1,1.371,1.067,4.289,4.289,0,0,1,.785,1.521,6.3,6.3,0,0,1,.249,1.766v7.357h-2.992V408.64a8.348,8.348,0,0,0-.074-1.079,2.9,2.9,0,0,0-.325-1.018,2.126,2.126,0,0,0-.685-.748,2.041,2.041,0,0,0-1.159-.3,2.593,2.593,0,0,0-1.247.282,2.63,2.63,0,0,0-.86.724,3.179,3.179,0,0,0-.51,1.018,3.979,3.979,0,0,0-.175,1.165v6.474h-2.992Z" fill="#2e2e2e"/>
      <path id="Path_21" data-name="Path 21" d="M338.042,415.164H335.2V413.4h-.049a4.05,4.05,0,0,1-1.733,1.569,5.366,5.366,0,0,1-2.381.54,5.786,5.786,0,0,1-2.456-.5,5.608,5.608,0,0,1-1.844-1.349,5.951,5.951,0,0,1-1.172-1.987,7.133,7.133,0,0,1-.412-2.44,6.833,6.833,0,0,1,.425-2.428,5.884,5.884,0,0,1,1.2-1.962,5.59,5.59,0,0,1,1.844-1.313,5.689,5.689,0,0,1,2.344-.478,5.286,5.286,0,0,1,2.6.638,4.419,4.419,0,0,1,.836.589,4.777,4.777,0,0,1,.573.613h.075V394.9h2.992Zm-9.847-5.935a4.612,4.612,0,0,0,.212,1.374,3.747,3.747,0,0,0,.636,1.226,3.308,3.308,0,0,0,1.072.883,3.491,3.491,0,0,0,2.992.012,3.6,3.6,0,0,0,1.108-.871,3.755,3.755,0,0,0,.7-1.214,4.1,4.1,0,0,0,.237-1.362,4.21,4.21,0,0,0-.237-1.373,3.737,3.737,0,0,0-1.807-2.109,3.09,3.09,0,0,0-1.472-.343,3.3,3.3,0,0,0-1.52.331,3.183,3.183,0,0,0-1.072.87,3.767,3.767,0,0,0-.636,1.215A4.492,4.492,0,0,0,328.195,409.229Z" fill="#2e2e2e"/>
      <path id="Path_22" data-name="Path 22" d="M348.238,406.531a3.442,3.442,0,0,0-1.1-.9,3.133,3.133,0,0,0-1.521-.381,2.95,2.95,0,0,0-1.321.3,1.014,1.014,0,0,0-.6.981.984.984,0,0,0,.661.968,12.148,12.148,0,0,0,1.932.576,11.228,11.228,0,0,1,1.358.393,4.965,4.965,0,0,1,1.247.65,3.229,3.229,0,0,1,.91,1.006,2.86,2.86,0,0,1,.349,1.46,3.751,3.751,0,0,1-.411,1.827,3.454,3.454,0,0,1-1.1,1.214,4.656,4.656,0,0,1-1.6.674,8.407,8.407,0,0,1-1.883.209,7.59,7.59,0,0,1-2.717-.5,5.74,5.74,0,0,1-2.195-1.434l1.97-1.815a3.905,3.905,0,0,0,1.3,1.054,3.749,3.749,0,0,0,1.769.418,3.127,3.127,0,0,0,.66-.074,2.255,2.255,0,0,0,.624-.233,1.269,1.269,0,0,0,.461-.43,1.19,1.19,0,0,0,.175-.661,1.086,1.086,0,0,0-.685-1.055,11.241,11.241,0,0,0-2.056-.638,9.865,9.865,0,0,1-1.309-.379,4.3,4.3,0,0,1-1.135-.614,2.844,2.844,0,0,1-.8-.944,2.958,2.958,0,0,1-.3-1.4,3.324,3.324,0,0,1,.412-1.692,3.5,3.5,0,0,1,1.084-1.165,4.909,4.909,0,0,1,1.521-.674,6.869,6.869,0,0,1,1.746-.221,7.456,7.456,0,0,1,2.529.441,4.27,4.27,0,0,1,1.957,1.349Z" fill="#2e2e2e"/>
      <path id="Path_23" data-name="Path 23" d="M356.065,403.39h2.992v2.355h-2.992v5.47a2.649,2.649,0,0,0,.287,1.3q.287.515,1.284.514a3.769,3.769,0,0,0,.649-.061,2.632,2.632,0,0,0,.623-.184l.1,2.306a5.073,5.073,0,0,1-.947.233,6.775,6.775,0,0,1-1.048.086,4.847,4.847,0,0,1-1.944-.331,2.924,2.924,0,0,1-1.184-.908,3.308,3.308,0,0,1-.6-1.324,7.534,7.534,0,0,1-.162-1.606v-5.495h-2.095V403.39h2.095" fill="#2e2e2e"/>
      <path id="Path_24" data-name="Path 24" d="M372.145,415.164H369.3v-1.889h-.051a3.826,3.826,0,0,1-1.383,1.558,4.025,4.025,0,0,1-2.331.675,4.561,4.561,0,0,1-2.007-.405,3.947,3.947,0,0,1-1.371-1.067,4.277,4.277,0,0,1-.785-1.521,6.275,6.275,0,0,1-.249-1.766V403.39h2.991v6.525a8.352,8.352,0,0,0,.075,1.079,2.875,2.875,0,0,0,.325,1.018,2.114,2.114,0,0,0,.685.748,2.045,2.045,0,0,0,1.159.294,2.589,2.589,0,0,0,2.107-1,3.184,3.184,0,0,0,.511-1.018,4,4,0,0,0,.175-1.165V403.39h2.992Z" fill="#2e2e2e"/>
      <path id="Path_25" data-name="Path 25" d="M398.267,406.653a2.647,2.647,0,0,0-1.047-.821,3.285,3.285,0,0,0-1.422-.331,3.036,3.036,0,0,0-1.446.331,3.131,3.131,0,0,0-1.034.87,3.744,3.744,0,0,0-.611,1.214,4.783,4.783,0,0,0-.2,1.361,4.493,4.493,0,0,0,.212,1.362,3.729,3.729,0,0,0,.636,1.214,3.21,3.21,0,0,0,1.059.871,3.167,3.167,0,0,0,1.484.331,3.839,3.839,0,0,0,1.4-.27,2.667,2.667,0,0,0,1.122-.784l1.869,1.864a4.964,4.964,0,0,1-1.907,1.214,7.162,7.162,0,0,1-2.505.43,7.484,7.484,0,0,1-2.506-.417,5.949,5.949,0,0,1-2.069-1.226,5.807,5.807,0,0,1-1.4-1.963,6.409,6.409,0,0,1-.511-2.624,6.3,6.3,0,0,1,.511-2.575,5.9,5.9,0,0,1,1.383-1.961,6.2,6.2,0,0,1,2.032-1.251,7.04,7.04,0,0,1,5.036.049,4.836,4.836,0,0,1,1.957,1.349Z" fill="#2e2e2e"/>
      <path id="Path_26" data-name="Path 26" d="M402.3,396.622H405.3v11.723h.075l4.537-4.955h3.839l-5.185,5.323,5.51,6.45h-3.964l-4.737-6.033H405.3v6.033H402.3Z" fill="#2e2e2e"/>
      <path id="Path_27" data-name="Path 27" d="M426.762,409.424v.393a3.1,3.1,0,0,1-.025.392h-9.1a2.885,2.885,0,0,0,.337,1.166,2.97,2.97,0,0,0,.76.907,3.773,3.773,0,0,0,1.072.6,3.588,3.588,0,0,0,1.246.221,4.051,4.051,0,0,0,1.9-.405,3.533,3.533,0,0,0,1.271-1.116l1.994,1.57a6.034,6.034,0,0,1-5.136,2.355,7.407,7.407,0,0,1-2.567-.43,6.065,6.065,0,0,1-2.032-1.214,5.463,5.463,0,0,1-1.346-1.926,6.522,6.522,0,0,1-.487-2.587,6.652,6.652,0,0,1,.487-2.589,5.877,5.877,0,0,1,1.333-1.985,5.973,5.973,0,0,1,2.007-1.276,6.828,6.828,0,0,1,2.505-.453,6.415,6.415,0,0,1,2.306.4,5.022,5.022,0,0,1,1.832,1.2,5.563,5.563,0,0,1,1.209,1.987A8.076,8.076,0,0,1,426.762,409.424ZM423.77,408.1a3.589,3.589,0,0,0-.162-1.078,2.464,2.464,0,0,0-.511-.908,2.492,2.492,0,0,0-.885-.625,3.143,3.143,0,0,0-1.259-.234,3.4,3.4,0,0,0-2.282.8,2.89,2.89,0,0,0-1.034,2.048Z" fill="#2e2e2e"/>
      <path id="Path_28" data-name="Path 28" d="M387.154,409.424v.393a3.1,3.1,0,0,1-.026.392h-9.1a2.872,2.872,0,0,0,.336,1.166,2.984,2.984,0,0,0,.761.907,3.763,3.763,0,0,0,1.072.6,3.584,3.584,0,0,0,1.246.221,4.051,4.051,0,0,0,1.9-.405,3.533,3.533,0,0,0,1.271-1.116l1.994,1.57a6.033,6.033,0,0,1-5.136,2.355,7.407,7.407,0,0,1-2.567-.43,6.072,6.072,0,0,1-2.032-1.214,5.473,5.473,0,0,1-1.346-1.926,6.522,6.522,0,0,1-.486-2.587,6.652,6.652,0,0,1,.486-2.589,5.879,5.879,0,0,1,1.334-1.985,5.97,5.97,0,0,1,2.007-1.276,6.828,6.828,0,0,1,2.505-.453,6.412,6.412,0,0,1,2.306.4,5.015,5.015,0,0,1,1.832,1.2,5.554,5.554,0,0,1,1.21,1.987A8.1,8.1,0,0,1,387.154,409.424Zm-2.992-1.325a3.591,3.591,0,0,0-.162-1.078,2.453,2.453,0,0,0-.511-.908,2.492,2.492,0,0,0-.885-.625,3.14,3.14,0,0,0-1.259-.234,3.4,3.4,0,0,0-2.281.8,2.884,2.884,0,0,0-1.034,2.048Z" fill="#2e2e2e"/>
      <path id="Path_29" data-name="Path 29" d="M428.765,413.916a1.316,1.316,0,0,1,.425-.982,1.427,1.427,0,0,1,1.025-.41,1.467,1.467,0,0,1,1.015.392,1.247,1.247,0,0,1,.436.963,1.312,1.312,0,0,1-.427.98,1.42,1.42,0,0,1-1.024.411,1.446,1.446,0,0,1-.554-.108,1.569,1.569,0,0,1-.462-.285,1.306,1.306,0,0,1-.317-.428A1.23,1.23,0,0,1,428.765,413.916Z" fill="#2e2e2e"/>
      <path id="Path_30" data-name="Path 30" d="M442.726,415.164h-2.067V413.88h-.036a2.944,2.944,0,0,1-1.26,1.142,3.921,3.921,0,0,1-1.732.392,4.207,4.207,0,0,1-1.786-.365,4.118,4.118,0,0,1-1.342-.981,4.34,4.34,0,0,1-.851-1.446,5.188,5.188,0,0,1-.3-1.774,4.98,4.98,0,0,1,.308-1.766,4.277,4.277,0,0,1,.87-1.427,4.048,4.048,0,0,1,1.342-.954,4.13,4.13,0,0,1,1.7-.348,3.829,3.829,0,0,1,1.895.464,3.2,3.2,0,0,1,.607.428,3.355,3.355,0,0,1,.418.446h.054v-6.011h2.176Zm-7.162-4.316a3.372,3.372,0,0,0,.154,1,2.723,2.723,0,0,0,.462.891,2.409,2.409,0,0,0,.779.643,2.537,2.537,0,0,0,2.176.009,2.6,2.6,0,0,0,.807-.634,2.754,2.754,0,0,0,.508-.883,2.962,2.962,0,0,0,.172-.99,3.045,3.045,0,0,0-.172-1,2.72,2.72,0,0,0-1.315-1.535,2.261,2.261,0,0,0-1.07-.25,2.4,2.4,0,0,0-1.107.242,2.317,2.317,0,0,0-.779.633,2.758,2.758,0,0,0-.462.883A3.29,3.29,0,0,0,435.564,410.848Z" fill="#2e2e2e"/>
      <path id="Path_31" data-name="Path 31" d="M453.677,410.99v.285a2.262,2.262,0,0,1-.017.285h-6.619a2.106,2.106,0,0,0,.245.847,2.157,2.157,0,0,0,.554.66,2.742,2.742,0,0,0,.78.437,2.611,2.611,0,0,0,.906.161,2.932,2.932,0,0,0,1.378-.3,2.557,2.557,0,0,0,.925-.812l1.451,1.142a4.387,4.387,0,0,1-3.735,1.712,5.372,5.372,0,0,1-1.867-.312,4.413,4.413,0,0,1-1.478-.882,3.976,3.976,0,0,1-.979-1.4,4.758,4.758,0,0,1-.354-1.882,4.849,4.849,0,0,1,.354-1.883,4.293,4.293,0,0,1,.969-1.445,4.373,4.373,0,0,1,1.46-.928,4.969,4.969,0,0,1,1.822-.329,4.664,4.664,0,0,1,1.677.294,3.645,3.645,0,0,1,1.332.874,4.039,4.039,0,0,1,.879,1.444A5.863,5.863,0,0,1,453.677,410.99Zm-2.176-.964a2.576,2.576,0,0,0-.118-.784,1.776,1.776,0,0,0-.371-.66,1.825,1.825,0,0,0-.644-.455,2.279,2.279,0,0,0-.915-.169,2.475,2.475,0,0,0-1.66.579,2.11,2.11,0,0,0-.752,1.49Z" fill="#2e2e2e"/>
    </g>
    <g id="Group_2" data-name="Group 2">
      <path id="Path_32" data-name="Path 32" d="M299.355,427.766c0,2.393-.653,3.16-2.476,3.16-.871,0-1.6-.036-2.26-.08v-6.159c.662-.045,1.379-.081,2.26-.081C298.7,424.606,299.355,425.374,299.355,427.766Zm-.962,0c0-1.794-.372-2.384-1.515-2.384-.517,0-.953.009-1.352.019v4.731c.39.01.844.018,1.352.018C298.022,430.15,298.394,429.56,298.394,427.766Z" fill="#7b7b7b"/>
      <path id="Path_33" data-name="Path 33" d="M304.606,427.812v3.035h-.689l-.1-.687a2.566,2.566,0,0,1-1.769.768,1.2,1.2,0,0,1-1.352-1.232v-.455c0-.7.453-1.09,1.253-1.09h1.777v-.338c-.009-.536-.2-.706-.879-.706-.435,0-1.189.053-1.878.107l-.082-.633a14.73,14.73,0,0,1,2.15-.206C304.062,426.373,304.606,426.713,304.606,427.812Zm-3.021,1.776c0,.429.2.608.644.608a2.385,2.385,0,0,0,1.5-.616V428.8h-1.614c-.409.017-.526.223-.526.553Z" fill="#7b7b7b"/>
      <path id="Path_34" data-name="Path 34" d="M309.685,426.525l-.073.625c-.553-.017-1.125-.045-1.679-.045-.789,0-1.034.009-1.034.482,0,.419.208.455.626.572l1.253.3c.716.188,1.034.464,1.034,1.223,0,1.072-.6,1.259-1.924,1.259a12.191,12.191,0,0,1-1.76-.124l.064-.644c.408.036.944.045,1.515.045.972,0,1.253-.089,1.253-.536,0-.4-.255-.446-.672-.554l-1.234-.3a1.113,1.113,0,0,1-1.007-1.241c0-.991.518-1.223,1.751-1.215A14.446,14.446,0,0,1,309.685,426.525Z" fill="#7b7b7b"/>
      <path id="Path_35" data-name="Path 35" d="M314.326,424.633a.227.227,0,0,1,.254.249v.5a.227.227,0,0,1-.254.259h-.417a.227.227,0,0,1-.254-.259v-.5a.227.227,0,0,1,.254-.249Zm-.644,6.213V426.49h.872v4.356Z" fill="#7b7b7b"/>
      <path id="Path_36" data-name="Path 36" d="M320.268,427.578v3.268h-.881v-3.018c0-.553-.145-.723-.563-.723a3.378,3.378,0,0,0-1.641.653l.008,3.088h-.881V426.49h.745l.054.66a3.382,3.382,0,0,1,1.96-.777A1.077,1.077,0,0,1,320.268,427.578Z" fill="#7b7b7b"/>
      <path id="Path_37" data-name="Path 37" d="M323.187,429.587c0,.411.153.554.579.554h.645l.1.669a4.985,4.985,0,0,1-1.044.116,1.07,1.07,0,0,1-1.153-1.223v-2.544h-.807v-.625l.807-.044v-1.276h.873v1.276h1.369v.669h-1.369Z" fill="#7b7b7b"/>
      <path id="Path_38" data-name="Path 38" d="M329.436,430.122l.082.572a5.272,5.272,0,0,1-1.751.258c-1.543,0-2.131-.615-2.131-2.294,0-1.723.615-2.286,2.05-2.286,1.379,0,1.942.509,1.942,1.464,0,.786-.335,1.25-1.079,1.25H326.56c.091.946.471,1.143,1.324,1.143C328.338,430.231,328.955,430.176,329.436,430.122Zm-2.894-1.7h1.769c.372,0,.437-.313.437-.58-.011-.527-.263-.732-1.017-.732C326.869,427.106,326.577,427.383,326.542,428.418Z" fill="#7b7b7b"/>
      <path id="Path_39" data-name="Path 39" d="M333.835,427.187h-.273a3.911,3.911,0,0,0-1.589.5v3.16h-.879V426.49h.681l.09.669a3.166,3.166,0,0,1,1.861-.786h.209Z" fill="#7b7b7b"/>
      <path id="Path_40" data-name="Path 40" d="M338.8,427.812v3.035h-.689l-.1-.687a2.568,2.568,0,0,1-1.771.768,1.2,1.2,0,0,1-1.351-1.232v-.455c0-.7.453-1.09,1.253-1.09h1.778v-.338c-.009-.536-.2-.706-.879-.706-.436,0-1.189.053-1.878.107l-.083-.633a14.741,14.741,0,0,1,2.152-.206C338.251,426.373,338.8,426.713,338.8,427.812Zm-3.021,1.776c0,.429.2.608.644.608a2.388,2.388,0,0,0,1.5-.616V428.8H336.3c-.409.017-.526.223-.526.553Z" fill="#7b7b7b"/>
      <path id="Path_41" data-name="Path 41" d="M341.314,428.7a5.782,5.782,0,0,1,.045.679v1.464h-.879V424.6h.879l.009,2.74a4.745,4.745,0,0,1-.054.741h.555l1.324-1.589h1.016l-1.334,1.58a1.878,1.878,0,0,1-.326.321v.018a1.824,1.824,0,0,1,.326.375l1.48,2.063h-1.016l-1.47-2.143Z" fill="#7b7b7b"/>
      <path id="Path_42" data-name="Path 42" d="M346.756,429.587c0,.411.155.554.581.554h.644l.1.669a4.982,4.982,0,0,1-1.043.116,1.069,1.069,0,0,1-1.153-1.223v-2.544h-.809v-.625l.809-.044v-1.276h.87v1.276h1.37v.669h-1.37Z" fill="#7b7b7b"/>
      <path id="Path_43" data-name="Path 43" d="M350.093,424.633a.226.226,0,0,1,.253.249v.5a.226.226,0,0,1-.253.259h-.418a.227.227,0,0,1-.255-.259v-.5a.227.227,0,0,1,.255-.249Zm-.645,6.213V426.49h.872v4.356Z" fill="#7b7b7b"/>
      <path id="Path_44" data-name="Path 44" d="M354.52,430.632a.323.323,0,0,1-.309.214h-.789a.31.31,0,0,1-.3-.214l-1.579-4.142h.935l1.033,3c.082.242.165.5.246.75h.117c.091-.25.173-.508.264-.75l1.025-3h.934Z" fill="#7b7b7b"/>
      <path id="Path_45" data-name="Path 45" d="M360.815,430.122l.081.572a5.272,5.272,0,0,1-1.751.258c-1.543,0-2.132-.615-2.132-2.294,0-1.723.616-2.286,2.05-2.286,1.38,0,1.942.509,1.942,1.464,0,.786-.335,1.25-1.078,1.25h-1.988c.091.946.472,1.143,1.324,1.143C359.716,430.231,360.333,430.176,360.815,430.122Zm-2.895-1.7h1.769c.372,0,.437-.313.437-.58-.01-.527-.263-.732-1.017-.732C358.246,427.106,357.955,427.383,357.92,428.418Z" fill="#7b7b7b"/>
      <path id="Path_46" data-name="Path 46" d="M369.285,430.846h-.672l-.091-.615a2.769,2.769,0,0,1-1.859.731c-1.389,0-1.96-1.009-1.96-3.223,0-2.463.7-3.169,2.666-3.169a7.438,7.438,0,0,1,1.743.187l-.09.679c-.572-.054-1.19-.071-1.6-.071-1.305,0-1.76.3-1.76,2.437,0,1.767.318,2.383,1.253,2.383a2.615,2.615,0,0,0,1.479-.544v-2.348h.889Z" fill="#7b7b7b"/>
      <path id="Path_47" data-name="Path 47" d="M373.655,427.187h-.271a3.9,3.9,0,0,0-1.588.5v3.16h-.88V426.49h.68l.091.669a3.166,3.166,0,0,1,1.859-.786h.209Z" fill="#7b7b7b"/>
      <path id="Path_48" data-name="Path 48" d="M378.771,430.846h-.7l-.063-.6a3.183,3.183,0,0,1-1.888.714,1.076,1.076,0,0,1-1.206-1.206V426.49h.881v3.017c-.009.537.162.714.635.714a2.922,2.922,0,0,0,1.471-.58V426.49h.87Z" fill="#7b7b7b"/>
      <path id="Path_49" data-name="Path 49" d="M384.447,427.578v3.268h-.88v-3.018c0-.553-.145-.723-.562-.723a3.377,3.377,0,0,0-1.642.653l.008,3.088h-.881V426.49h.744l.054.66a3.381,3.381,0,0,1,1.96-.777A1.077,1.077,0,0,1,384.447,427.578Z" fill="#7b7b7b"/>
      <path id="Path_50" data-name="Path 50" d="M390,430.846h-.69l-.072-.6a2.761,2.761,0,0,1-1.742.7c-1.116,0-1.552-.8-1.552-2.3,0-1.715.563-2.277,1.688-2.277a3.073,3.073,0,0,1,1.524.393c-.026-.285-.036-.554-.036-.858V424.6H390Zm-2.206-.643a2.187,2.187,0,0,0,1.327-.544v-2.321a4.78,4.78,0,0,0-1.271-.215c-.724,0-1,.277-1,1.518S387.122,430.2,387.792,430.2Z" fill="#7b7b7b"/>
      <path id="Path_51" data-name="Path 51" d="M395.112,426.525l-.073.625c-.553-.017-1.125-.045-1.679-.045-.789,0-1.033.009-1.033.482,0,.419.209.455.626.572l1.252.3c.717.188,1.034.464,1.034,1.223,0,1.072-.6,1.259-1.924,1.259a12.2,12.2,0,0,1-1.759-.124l.063-.644c.409.036.944.045,1.516.045.97,0,1.253-.089,1.253-.536,0-.4-.255-.446-.672-.554l-1.234-.3a1.114,1.114,0,0,1-1.008-1.241c0-.991.517-1.223,1.752-1.215A14.425,14.425,0,0,1,395.112,426.525Z" fill="#7b7b7b"/>
      <path id="Path_52" data-name="Path 52" d="M397.922,429.587c0,.411.154.554.58.554h.646l.1.669a4.963,4.963,0,0,1-1.041.116,1.071,1.071,0,0,1-1.154-1.223v-2.544h-.807v-.625l.807-.044v-1.276h.872v1.276h1.37v.669h-1.37Z" fill="#7b7b7b"/>
      <path id="Path_53" data-name="Path 53" d="M404.408,430.846h-.7l-.063-.6a3.164,3.164,0,0,1-1.888.714,1.076,1.076,0,0,1-1.208-1.206V426.49h.881v3.017c-.009.537.164.714.635.714a2.889,2.889,0,0,0,1.47-.58V426.49h.871Zm-2.841-5.267c-.164,0-.236-.072-.236-.242v-.482a.215.215,0,0,1,.236-.242h.291a.215.215,0,0,1,.235.242v.482c0,.169-.072.242-.235.242Zm1.607,0c-.164,0-.237-.072-.237-.242v-.482a.216.216,0,0,1,.237-.242h.289a.227.227,0,0,1,.246.242v.482a.215.215,0,0,1-.246.242Z" fill="#7b7b7b"/>
      <path id="Path_54" data-name="Path 54" d="M409.505,426.6l-.119.553c-.407-.027-.888-.045-1.2-.045-1.007,0-1.352.349-1.352,1.562s.345,1.563,1.352,1.563a8.676,8.676,0,0,0,1.306-.1l.082.58a4.744,4.744,0,0,1-1.542.24c-1.552,0-2.114-.606-2.114-2.285s.572-2.294,2.114-2.294A4.568,4.568,0,0,1,409.505,426.6Z" fill="#7b7b7b"/>
      <path id="Path_55" data-name="Path 55" d="M411.778,428.7a5.781,5.781,0,0,1,.046.679v1.464h-.879V424.6h.879l.009,2.74a4.743,4.743,0,0,1-.055.741h.555l1.324-1.589h1.015l-1.333,1.58a1.853,1.853,0,0,1-.326.321v.018a1.8,1.8,0,0,1,.326.375l1.48,2.063H413.8l-1.469-2.143Z" fill="#7b7b7b"/>
      <path id="Path_56" data-name="Path 56" d="M420.134,428.695c0,1.687-.564,2.258-1.688,2.258a3.007,3.007,0,0,1-1.607-.437,7.215,7.215,0,0,1,.028.884v1.223h-.873V426.49h.726l.063.669a2.755,2.755,0,0,1,1.843-.786C419.7,426.373,420.134,427.2,420.134,428.695Zm-.909-.008c0-1.171-.252-1.563-.9-1.563a2.523,2.523,0,0,0-1.46.635v2.213a5.588,5.588,0,0,0,1.342.232C418.945,430.2,419.225,429.927,419.225,428.686Z" fill="#7b7b7b"/>
      <path id="Path_57" data-name="Path 57" d="M425.674,428.678c0,1.66-.572,2.285-2.114,2.285s-2.115-.625-2.115-2.285.573-2.3,2.115-2.3S425.674,427.007,425.674,428.678Zm-3.31,0c0,1.2.28,1.562,1.2,1.562s1.2-.357,1.2-1.562c0-1.223-.281-1.572-1.2-1.572S422.363,427.454,422.363,428.678Z" fill="#7b7b7b"/>
      <path id="Path_58" data-name="Path 58" d="M429.928,427.187h-.273a3.9,3.9,0,0,0-1.588.5v3.16h-.879V426.49h.681l.09.669a3.168,3.168,0,0,1,1.86-.786h.209Z" fill="#7b7b7b"/>
      <path id="Path_59" data-name="Path 59" d="M432.437,429.587c0,.411.155.554.581.554h.645l.1.669a4.977,4.977,0,0,1-1.043.116,1.069,1.069,0,0,1-1.152-1.223v-2.544h-.808v-.625l.808-.044v-1.276h.87v1.276h1.371v.669h-1.371Z" fill="#7b7b7b"/>
      <path id="Path_60" data-name="Path 60" d="M438.769,427.812v3.035h-.69l-.1-.687a2.569,2.569,0,0,1-1.769.768,1.2,1.2,0,0,1-1.352-1.232v-.455c0-.7.455-1.09,1.253-1.09h1.779v-.338c-.011-.536-.2-.706-.881-.706-.435,0-1.189.053-1.878.107l-.082-.633a14.731,14.731,0,0,1,2.151-.206C438.224,426.373,438.769,426.713,438.769,427.812Zm-3.021,1.776c0,.429.2.608.643.608a2.392,2.392,0,0,0,1.5-.616V428.8h-1.616c-.409.017-.526.223-.526.553Z" fill="#7b7b7b"/>
      <path id="Path_61" data-name="Path 61" d="M441.335,429.587a.506.506,0,0,0,.581.554h.409l.1.669a2.836,2.836,0,0,1-.844.116,1.035,1.035,0,0,1-1.117-1.142V424.6h.881Z" fill="#7b7b7b"/>
    </g>
    <path id="Path_62" data-name="Path 62" d="M192.064,392.772l-30.842-13.647,15.322-15.5,30.841,13.648Z" fill="#94b53b" opacity="0.4"/>
    <path id="Path_63" data-name="Path 63" d="M157.476,401.622l-30.842-13.647,15.323-15.5L172.8,386.121Z" fill="#94b53b" opacity="0.7"/>
    <path id="Path_64" data-name="Path 64" d="M154.518,424.571l-30.842-13.647L139,395.422,169.84,409.07Z" fill="#94b53b"/>
    <rect id="Rectangle_1" data-name="Rectangle 1" width="2.941" height="11.924" transform="translate(353.124 396.622)" fill="#2e2e2e"/>
  </g>
</svg>
