<svg xmlns="http://www.w3.org/2000/svg" width="255" height="54" viewBox="0 0 255 54">
  <g id="Vektor-Smartobjekt" transform="translate(-95.568 -284.575)">
    <path id="Path_19" data-name="Path 19" d="M258.9,311.616l9.189-4.866-1.067-2-8.122,4.3Z" fill="#2e2e2e"/>
    <path id="Path_20" data-name="Path 20" d="M275.141,309.052l-8.122-4.3-1.067,2,9.189,4.866Z" fill="#2e2e2e"/>
    <g id="Group_4" data-name="Group 4">
      <path id="Path_21" data-name="Path 21" d="M140.967,317.291h-2.119v7.62h-1.811v-7.62h-1.811v-1.478h1.811v-1.9a5.726,5.726,0,0,1,.183-1.488,3.065,3.065,0,0,1,.6-1.181,2.876,2.876,0,0,1,1.06-.786,3.84,3.84,0,0,1,1.57-.289,4.279,4.279,0,0,1,1.137.135l-.212,1.555c-.141-.039-.283-.07-.424-.1a2.722,2.722,0,0,0-.482-.038,1.675,1.675,0,0,0-.838.182,1.292,1.292,0,0,0-.492.49,2,2,0,0,0-.231.7,5.605,5.605,0,0,0-.058.815v1.9h2.119Z" fill="#2e2e2e"/>
      <path id="Path_22" data-name="Path 22" d="M142.624,316.83c-.013-.384-.032-.723-.058-1.017h1.715q.039.345.058.8t.019.738h.058a3.147,3.147,0,0,1,1.127-1.295,2.953,2.953,0,0,1,1.666-.49,2.821,2.821,0,0,1,.713.077l-.077,1.67a3.39,3.39,0,0,0-.828-.1,2.52,2.52,0,0,0-1.137.24,2.324,2.324,0,0,0-.8.643,2.72,2.72,0,0,0-.472.932,3.91,3.91,0,0,0-.154,1.1v4.78h-1.811v-7.14Q142.643,317.406,142.624,316.83Z" fill="#2e2e2e"/>
      <path id="Path_23" data-name="Path 23" d="M157.8,320.285v.308a2.467,2.467,0,0,1-.019.307h-7.263a2.681,2.681,0,0,0,.26,1.077,2.827,2.827,0,0,0,.645.877,3,3,0,0,0,.935.581,3.272,3.272,0,0,0,2.726-.194,3.25,3.25,0,0,0,1.06-.978l1.271,1.017A4.544,4.544,0,0,1,155.7,324.7a5.551,5.551,0,0,1-4.133.111,4.366,4.366,0,0,1-2.524-2.477,5.059,5.059,0,0,1-.366-1.957,5.194,5.194,0,0,1,.357-1.948,4.452,4.452,0,0,1,.994-1.526,4.558,4.558,0,0,1,1.506-.989,5.193,5.193,0,0,1,3.7-.029,3.778,3.778,0,0,1,1.39.941,4.24,4.24,0,0,1,.878,1.487A5.87,5.87,0,0,1,157.8,320.285Zm-1.849-.729a3.441,3.441,0,0,0-.183-1.007,2.318,2.318,0,0,0-.482-.816,2.271,2.271,0,0,0-.79-.547,2.8,2.8,0,0,0-1.108-.2,2.921,2.921,0,0,0-1.088.2,2.831,2.831,0,0,0-.886.547,2.892,2.892,0,0,0-.616.816,2.587,2.587,0,0,0-.28,1.007Z" fill="#2e2e2e"/>
      <path id="Path_24" data-name="Path 24" d="M162.428,312.53a1.076,1.076,0,0,1-.354.826,1.211,1.211,0,0,1-.851.326,1.158,1.158,0,0,1-.841-.336,1.1,1.1,0,0,1-.344-.816,1.122,1.122,0,0,1,.344-.835,1.162,1.162,0,0,1,.841-.335,1.2,1.2,0,0,1,.851.335A1.107,1.107,0,0,1,162.428,312.53Zm-.289,12.381h-1.811v-9.1h1.811Z" fill="#2e2e2e"/>
      <path id="Path_25" data-name="Path 25" d="M173.832,320.285v.308a2.464,2.464,0,0,1-.019.307H166.55a2.672,2.672,0,0,0,.26,1.077,2.827,2.827,0,0,0,.645.877,2.988,2.988,0,0,0,.935.581,3.272,3.272,0,0,0,2.726-.194,3.25,3.25,0,0,0,1.06-.978l1.271,1.017a4.548,4.548,0,0,1-1.724,1.425,5.551,5.551,0,0,1-4.132.111,4.366,4.366,0,0,1-2.524-2.477,5.059,5.059,0,0,1-.366-1.957,5.183,5.183,0,0,1,.357-1.948,4.435,4.435,0,0,1,.994-1.526,4.55,4.55,0,0,1,1.506-.989,5.193,5.193,0,0,1,3.7-.029,3.773,3.773,0,0,1,1.39.941,4.233,4.233,0,0,1,.879,1.487A5.87,5.87,0,0,1,173.832,320.285Zm-1.849-.729a3.423,3.423,0,0,0-.183-1.007,2.318,2.318,0,0,0-.482-.816,2.271,2.271,0,0,0-.79-.547,2.792,2.792,0,0,0-1.107-.2,2.926,2.926,0,0,0-1.089.2,2.845,2.845,0,0,0-.886.547,2.892,2.892,0,0,0-.616.816,2.6,2.6,0,0,0-.279,1.007Z" fill="#2e2e2e"/>
      <path id="Path_26" data-name="Path 26" d="M178.514,310.4v6.469h.058a3.725,3.725,0,0,1,.443-.48,3.378,3.378,0,0,1,.646-.461,4.062,4.062,0,0,1,.877-.355,4.11,4.11,0,0,1,1.136-.144,4.315,4.315,0,0,1,3.236,1.4,4.635,4.635,0,0,1,.925,1.536,5.421,5.421,0,0,1,.327,1.9,5.662,5.662,0,0,1-.317,1.91,4.681,4.681,0,0,1-.905,1.555,4.341,4.341,0,0,1-1.426,1.056,4.422,4.422,0,0,1-1.9.394,4.1,4.1,0,0,1-1.84-.423,3.137,3.137,0,0,1-1.339-1.228H178.4v1.381h-2.2V310.4Zm5.3,9.866a3.576,3.576,0,0,0-.164-1.065,2.971,2.971,0,0,0-.491-.951,2.478,2.478,0,0,0-.828-.681,2.525,2.525,0,0,0-1.176-.259,2.357,2.357,0,0,0-1.136.269,2.9,2.9,0,0,0-1.4,1.651,3.3,3.3,0,0,0-.183,1.074,3.217,3.217,0,0,0,.183,1.066,2.935,2.935,0,0,0,.539.95,2.791,2.791,0,0,0,.858.682,2.667,2.667,0,0,0,2.312-.009,2.577,2.577,0,0,0,.828-.691,2.955,2.955,0,0,0,.491-.96A3.672,3.672,0,0,0,183.811,320.266Z" fill="#2e2e2e"/>
      <path id="Path_27" data-name="Path 27" d="M194.137,323.74h-.058a2.574,2.574,0,0,1-1.117,1.008,3.813,3.813,0,0,1-1.752.393,5.015,5.015,0,0,1-1.166-.144,3.454,3.454,0,0,1-1.117-.48,2.776,2.776,0,0,1-.848-.882,2.537,2.537,0,0,1-.337-1.354,2.285,2.285,0,0,1,.587-1.651,3.8,3.8,0,0,1,1.512-.941,8.566,8.566,0,0,1,2.053-.432q1.126-.106,2.2-.105v-.23a1.422,1.422,0,0,0-.626-1.277,2.65,2.65,0,0,0-1.493-.412,3.366,3.366,0,0,0-1.407.307,3.817,3.817,0,0,0-1.117.749l-1.194-1.4a5.219,5.219,0,0,1,1.82-1.094,6.223,6.223,0,0,1,2.09-.365,5.153,5.153,0,0,1,2.032.346,3.3,3.3,0,0,1,1.262.9,3.234,3.234,0,0,1,.645,1.248,5.372,5.372,0,0,1,.183,1.382v5.6h-2.157Zm-.039-3.033h-.52q-.56,0-1.175.048a5.119,5.119,0,0,0-1.137.211,2.429,2.429,0,0,0-.867.461,1.02,1.02,0,0,0-.347.816.973.973,0,0,0,.145.547,1.1,1.1,0,0,0,.375.355,1.689,1.689,0,0,0,.521.192,2.99,2.99,0,0,0,.577.058,2.418,2.418,0,0,0,1.811-.633,2.371,2.371,0,0,0,.616-1.728Z" fill="#2e2e2e"/>
      <path id="Path_28" data-name="Path 28" d="M207.429,324.911h-2.2v-1.478h-.039a2.985,2.985,0,0,1-1.068,1.219,3.086,3.086,0,0,1-1.8.528,3.485,3.485,0,0,1-1.55-.317,3.061,3.061,0,0,1-1.061-.835,3.382,3.382,0,0,1-.607-1.19,5.014,5.014,0,0,1-.193-1.382V315.7h2.312V320.8a6.415,6.415,0,0,0,.058.845,2.256,2.256,0,0,0,.25.8,1.655,1.655,0,0,0,.531.586,1.563,1.563,0,0,0,.895.23,2,2,0,0,0,.954-.22,2.024,2.024,0,0,0,.674-.566,2.517,2.517,0,0,0,.395-.8,3.163,3.163,0,0,0,.135-.911V315.7h2.311Z" fill="#2e2e2e"/>
      <path id="Path_29" data-name="Path 29" d="M219.6,315.7v8.389a7.692,7.692,0,0,1-.309,2.255,4.362,4.362,0,0,1-.954,1.709,4.3,4.3,0,0,1-1.628,1.084,6.4,6.4,0,0,1-2.331.384,7.9,7.9,0,0,1-1.184-.1,8.188,8.188,0,0,1-1.233-.288,7.353,7.353,0,0,1-1.166-.479,5.653,5.653,0,0,1-1-.653l1.329-1.786a4.765,4.765,0,0,0,1.522.97,4.632,4.632,0,0,0,1.715.336,3.588,3.588,0,0,0,1.4-.241,2.248,2.248,0,0,0,.9-.664,2.608,2.608,0,0,0,.482-1,5.235,5.235,0,0,0,.144-1.271v-.674h-.039a3.267,3.267,0,0,1-1.281,1.038,4.138,4.138,0,0,1-1.743.358,4.525,4.525,0,0,1-1.888-.384,4.276,4.276,0,0,1-1.436-1.037,4.742,4.742,0,0,1-.915-1.526,5.231,5.231,0,0,1-.327-1.852,5.532,5.532,0,0,1,.318-1.882,4.591,4.591,0,0,1,.906-1.535,4.3,4.3,0,0,1,1.425-1.037,4.451,4.451,0,0,1,1.879-.384,4.207,4.207,0,0,1,1.83.4,3.085,3.085,0,0,1,1.348,1.248h.039V315.7Zm-4.932,1.613a2.631,2.631,0,0,0-1.127.23,2.414,2.414,0,0,0-.828.622,2.772,2.772,0,0,0-.521.928,3.528,3.528,0,0,0-.183,1.148,3.182,3.182,0,0,0,.183,1.071,3.063,3.063,0,0,0,.521.928,2.538,2.538,0,0,0,.828.66,2.416,2.416,0,0,0,1.107.249,2.624,2.624,0,0,0,2.013-.881,2.861,2.861,0,0,0,.549-.927,3.19,3.19,0,0,0,.193-1.1,3.322,3.322,0,0,0-.193-1.128,2.832,2.832,0,0,0-.549-.938,2.547,2.547,0,0,0-.857-.631A2.7,2.7,0,0,0,214.672,317.31Z" fill="#2e2e2e"/>
      <path id="Path_30" data-name="Path 30" d="M222.378,315.7h2.215v1.536h.039a3.358,3.358,0,0,1,1.079-1.305,2.7,2.7,0,0,1,1.618-.5c.089,0,.186,0,.288.009a1.135,1.135,0,0,1,.27.048V317.6a3.393,3.393,0,0,0-.4-.077,2.868,2.868,0,0,0-.318-.019,2.456,2.456,0,0,0-1.271.288,2.311,2.311,0,0,0-.752.691,2.456,2.456,0,0,0-.365.825,3.174,3.174,0,0,0-.1.672v4.933h-2.311Z" fill="#2e2e2e"/>
      <path id="Path_31" data-name="Path 31" d="M237.827,324.911h-2.2v-1.478h-.039a2.982,2.982,0,0,1-1.069,1.219,3.082,3.082,0,0,1-1.8.528,3.487,3.487,0,0,1-1.55-.317,3.056,3.056,0,0,1-1.06-.835,3.374,3.374,0,0,1-.607-1.19,4.992,4.992,0,0,1-.193-1.382V315.7h2.312V320.8a6.623,6.623,0,0,0,.058.845,2.257,2.257,0,0,0,.251.8,1.641,1.641,0,0,0,.529.586,1.565,1.565,0,0,0,.9.23,2,2,0,0,0,.954-.22,2.026,2.026,0,0,0,.674-.566,2.5,2.5,0,0,0,.395-.8,3.163,3.163,0,0,0,.135-.911V315.7h2.312Z" fill="#2e2e2e"/>
      <path id="Path_32" data-name="Path 32" d="M240.6,315.7h2.2v1.478h.039a2.984,2.984,0,0,1,1.069-1.219,3.083,3.083,0,0,1,1.8-.528,3.491,3.491,0,0,1,1.551.316,3.055,3.055,0,0,1,1.06.835,3.373,3.373,0,0,1,.607,1.19,4.987,4.987,0,0,1,.193,1.382v5.758H246.8v-5.105a6.614,6.614,0,0,0-.057-.845,2.292,2.292,0,0,0-.251-.8,1.656,1.656,0,0,0-.529-.585,1.562,1.562,0,0,0-.9-.231,1.983,1.983,0,0,0-.964.221,2.039,2.039,0,0,0-.665.567,2.5,2.5,0,0,0-.394.8,3.151,3.151,0,0,0-.135.912v5.067H240.6Z" fill="#2e2e2e"/>
      <path id="Path_33" data-name="Path 33" d="M261.214,324.911h-2.2v-1.381h-.038a3.145,3.145,0,0,1-1.339,1.228,4.1,4.1,0,0,1-1.84.423,4.422,4.422,0,0,1-1.9-.394,4.337,4.337,0,0,1-1.425-1.056,4.671,4.671,0,0,1-.905-1.555,5.647,5.647,0,0,1-.318-1.91,5.409,5.409,0,0,1,.328-1.9,4.616,4.616,0,0,1,.925-1.536,4.315,4.315,0,0,1,3.236-1.4,4.044,4.044,0,0,1,2.013.5,3.415,3.415,0,0,1,.646.461,3.721,3.721,0,0,1,.443.48h.058v-7.82h2.312Zm-7.609-4.645a3.652,3.652,0,0,0,.163,1.075,2.945,2.945,0,0,0,.492.96,2.564,2.564,0,0,0,.828.691A2.667,2.667,0,0,0,257.4,323a2.787,2.787,0,0,0,.856-.682,2.949,2.949,0,0,0,.54-.95,3.247,3.247,0,0,0,.183-1.066,3.332,3.332,0,0,0-.183-1.074,2.956,2.956,0,0,0-.54-.96,2.922,2.922,0,0,0-.856-.69,2.363,2.363,0,0,0-1.137-.269,2.52,2.52,0,0,0-1.175.259,2.467,2.467,0,0,0-.828.681,2.961,2.961,0,0,0-.492.951A3.557,3.557,0,0,0,253.6,320.266Z" fill="#2e2e2e"/>
      <path id="Path_34" data-name="Path 34" d="M269.093,318.155a2.667,2.667,0,0,0-.848-.7,2.4,2.4,0,0,0-1.175-.3,2.256,2.256,0,0,0-1.021.231.794.794,0,0,0-.462.768.77.77,0,0,0,.511.758,9.3,9.3,0,0,0,1.493.451,8.593,8.593,0,0,1,1.05.308,3.82,3.82,0,0,1,.963.508,2.516,2.516,0,0,1,.7.787,2.261,2.261,0,0,1,.27,1.142,2.966,2.966,0,0,1-.318,1.43,2.691,2.691,0,0,1-.848.95,3.574,3.574,0,0,1-1.233.528,6.417,6.417,0,0,1-1.455.163,5.8,5.8,0,0,1-2.1-.394,4.431,4.431,0,0,1-1.7-1.123l1.522-1.42a3.026,3.026,0,0,0,1,.825,2.867,2.867,0,0,0,1.367.327,2.386,2.386,0,0,0,.51-.058,1.729,1.729,0,0,0,.482-.183.986.986,0,0,0,.356-.336.94.94,0,0,0,.135-.518.851.851,0,0,0-.529-.825,8.61,8.61,0,0,0-1.589-.5,7.543,7.543,0,0,1-1.012-.3,3.307,3.307,0,0,1-.877-.48,2.219,2.219,0,0,1-.616-.739,2.34,2.34,0,0,1-.231-1.094,2.627,2.627,0,0,1,.318-1.324,2.729,2.729,0,0,1,.838-.912,3.77,3.77,0,0,1,1.175-.528,5.244,5.244,0,0,1,1.349-.173,5.7,5.7,0,0,1,1.954.346,3.3,3.3,0,0,1,1.513,1.056Z" fill="#2e2e2e"/>
      <path id="Path_35" data-name="Path 35" d="M275.141,315.7h2.312v1.843h-2.312v4.281a2.1,2.1,0,0,0,.222,1.017q.222.4.992.4a2.876,2.876,0,0,0,.5-.048,2.015,2.015,0,0,0,.482-.144l.077,1.8a3.88,3.88,0,0,1-.732.182,5.171,5.171,0,0,1-.81.067,3.7,3.7,0,0,1-1.5-.259,2.263,2.263,0,0,1-.915-.71,2.6,2.6,0,0,1-.462-1.037,5.967,5.967,0,0,1-.126-1.257v-4.3H271.25V315.7h1.619" fill="#2e2e2e"/>
      <path id="Path_36" data-name="Path 36" d="M287.567,324.911h-2.2v-1.478h-.039a2.982,2.982,0,0,1-1.069,1.219,3.082,3.082,0,0,1-1.8.528,3.487,3.487,0,0,1-1.551-.317,3.056,3.056,0,0,1-1.06-.835,3.363,3.363,0,0,1-.607-1.19,4.971,4.971,0,0,1-.193-1.382V315.7h2.311V320.8a6.615,6.615,0,0,0,.058.845,2.27,2.27,0,0,0,.251.8,1.647,1.647,0,0,0,.529.586,1.565,1.565,0,0,0,.9.23,2,2,0,0,0,.954-.22,2.027,2.027,0,0,0,.674-.566,2.5,2.5,0,0,0,.395-.8,3.164,3.164,0,0,0,.135-.911V315.7h2.312Z" fill="#2e2e2e"/>
      <path id="Path_37" data-name="Path 37" d="M307.752,318.25a2.05,2.05,0,0,0-.809-.643,2.512,2.512,0,0,0-1.1-.259,2.322,2.322,0,0,0-1.117.259,2.428,2.428,0,0,0-.8.681,2.944,2.944,0,0,0-.472.95,3.788,3.788,0,0,0-.154,1.065,3.558,3.558,0,0,0,.163,1.066,2.931,2.931,0,0,0,.492.95,2.488,2.488,0,0,0,.818.682,2.422,2.422,0,0,0,1.147.259,2.934,2.934,0,0,0,1.079-.211,2.061,2.061,0,0,0,.867-.614l1.444,1.459a3.83,3.83,0,0,1-1.473.95,5.471,5.471,0,0,1-1.936.336,5.717,5.717,0,0,1-1.936-.326,4.509,4.509,0,0,1-2.678-2.5,5.071,5.071,0,0,1-.395-2.054,4.981,4.981,0,0,1,.395-2.016,4.616,4.616,0,0,1,1.069-1.535,4.78,4.78,0,0,1,1.57-.979,5.376,5.376,0,0,1,3.891.038,3.736,3.736,0,0,1,1.513,1.056Z" fill="#2e2e2e"/>
      <path id="Path_38" data-name="Path 38" d="M310.872,310.4h2.312v9.175h.058l3.506-3.877h2.967l-4.007,4.166,4.257,5.048H316.9l-3.66-4.721h-.058v4.721h-2.312Z" fill="#2e2e2e"/>
      <path id="Path_39" data-name="Path 39" d="M329.77,320.419v.308a2.461,2.461,0,0,1-.019.307H322.72a2.28,2.28,0,0,0,.26.913,2.318,2.318,0,0,0,.587.71,2.9,2.9,0,0,0,.828.471,2.741,2.741,0,0,0,.963.173,3.1,3.1,0,0,0,1.465-.317,2.742,2.742,0,0,0,.982-.873l1.541,1.228a4.64,4.64,0,0,1-3.968,1.843,5.658,5.658,0,0,1-1.984-.336,4.675,4.675,0,0,1-1.57-.95,4.276,4.276,0,0,1-1.04-1.507,5.161,5.161,0,0,1-.376-2.025,5.264,5.264,0,0,1,.376-2.026,4.521,4.521,0,0,1,2.581-2.552,5.217,5.217,0,0,1,1.936-.355,4.9,4.9,0,0,1,1.782.316,3.877,3.877,0,0,1,1.416.941,4.364,4.364,0,0,1,.934,1.555A6.4,6.4,0,0,1,329.77,320.419Zm-2.312-1.037a2.842,2.842,0,0,0-.125-.844,1.886,1.886,0,0,0-1.079-1.2,2.4,2.4,0,0,0-.973-.183,2.609,2.609,0,0,0-1.763.624,2.271,2.271,0,0,0-.8,1.6Z" fill="#2e2e2e"/>
      <path id="Path_40" data-name="Path 40" d="M299.165,320.419v.308a2.462,2.462,0,0,1-.02.307h-7.031a2.269,2.269,0,0,0,.26.913,2.329,2.329,0,0,0,.588.71,2.9,2.9,0,0,0,.828.471,2.738,2.738,0,0,0,.963.173,3.1,3.1,0,0,0,1.465-.317,2.742,2.742,0,0,0,.982-.873l1.541,1.228a4.639,4.639,0,0,1-3.968,1.843,5.658,5.658,0,0,1-1.984-.336,4.681,4.681,0,0,1-1.57-.95,4.284,4.284,0,0,1-1.04-1.507,5.161,5.161,0,0,1-.375-2.025,5.264,5.264,0,0,1,.375-2.026,4.526,4.526,0,0,1,2.581-2.552,5.217,5.217,0,0,1,1.936-.355,4.9,4.9,0,0,1,1.782.316,3.871,3.871,0,0,1,1.416.941,4.357,4.357,0,0,1,.935,1.555A6.409,6.409,0,0,1,299.165,320.419Zm-2.312-1.037a2.842,2.842,0,0,0-.126-.844,1.886,1.886,0,0,0-1.079-1.2,2.4,2.4,0,0,0-.973-.183,2.607,2.607,0,0,0-1.762.624,2.267,2.267,0,0,0-.8,1.6Z" fill="#2e2e2e"/>
      <path id="Path_41" data-name="Path 41" d="M331.319,323.934a1.036,1.036,0,0,1,.329-.768,1.1,1.1,0,0,1,.792-.321,1.125,1.125,0,0,1,.784.307.981.981,0,0,1,.337.754,1.033,1.033,0,0,1-.33.767,1.09,1.09,0,0,1-.791.322,1.1,1.1,0,0,1-.428-.084,1.21,1.21,0,0,1-.357-.223,1.022,1.022,0,0,1-.245-.335A.973.973,0,0,1,331.319,323.934Z" fill="#2e2e2e"/>
      <path id="Path_42" data-name="Path 42" d="M342.107,324.911h-1.6v-1h-.028a2.285,2.285,0,0,1-.974.893,3,3,0,0,1-1.338.307,3.142,3.142,0,0,1-2.417-1.053,3.406,3.406,0,0,1-.658-1.131,4.107,4.107,0,0,1-.231-1.388,3.942,3.942,0,0,1,.238-1.382,3.355,3.355,0,0,1,.672-1.117,3.142,3.142,0,0,1,2.354-1.019,2.93,2.93,0,0,1,1.464.363,2.471,2.471,0,0,1,.469.335,2.612,2.612,0,0,1,.323.349h.041v-4.7h1.682Zm-5.534-3.378a2.671,2.671,0,0,0,.119.782,2.14,2.14,0,0,0,.357.7,1.867,1.867,0,0,0,.6.5,1.938,1.938,0,0,0,1.682.007,2.016,2.016,0,0,0,.623-.5,2.163,2.163,0,0,0,.392-.691,2.345,2.345,0,0,0,.133-.775,2.41,2.41,0,0,0-.133-.781,2.121,2.121,0,0,0-1.016-1.2,1.729,1.729,0,0,0-.827-.2,1.838,1.838,0,0,0-.855.189,1.8,1.8,0,0,0-.6.5,2.168,2.168,0,0,0-.357.691A2.606,2.606,0,0,0,336.572,321.533Z" fill="#2e2e2e"/>
      <path id="Path_43" data-name="Path 43" d="M350.568,321.645v.223a1.793,1.793,0,0,1-.013.223H345.44a1.664,1.664,0,0,0,.189.663,1.683,1.683,0,0,0,.428.517,2.111,2.111,0,0,0,.6.342,2,2,0,0,0,.7.126,2.242,2.242,0,0,0,1.065-.231,1.984,1.984,0,0,0,.715-.635l1.121.894a3.373,3.373,0,0,1-2.886,1.34,4.1,4.1,0,0,1-1.443-.244,3.4,3.4,0,0,1-1.142-.69,3.112,3.112,0,0,1-.757-1.1,3.766,3.766,0,0,1-.274-1.473,3.837,3.837,0,0,1,.274-1.473,3.281,3.281,0,0,1,1.877-1.857,3.8,3.8,0,0,1,1.408-.258,3.564,3.564,0,0,1,1.3.23,2.814,2.814,0,0,1,1.029.684,3.169,3.169,0,0,1,.68,1.13A4.642,4.642,0,0,1,350.568,321.645Zm-1.681-.754a2.04,2.04,0,0,0-.091-.614,1.4,1.4,0,0,0-.287-.517,1.411,1.411,0,0,0-.5-.356,1.742,1.742,0,0,0-.707-.133,1.9,1.9,0,0,0-1.283.453,1.659,1.659,0,0,0-.581,1.166Z" fill="#2e2e2e"/>
    </g>
    <g id="Group_5" data-name="Group 5">
      <path id="Path_44" data-name="Path 44" d="M231.32,334.774c0,1.872-.5,2.473-1.914,2.473-.673,0-1.235-.028-1.746-.063v-4.82c.511-.035,1.065-.063,1.746-.063C230.816,332.3,231.32,332.9,231.32,334.774Zm-.743,0c0-1.4-.287-1.865-1.17-1.865-.4,0-.737.007-1.045.015v3.7c.3.008.652.014,1.045.014C230.29,336.639,230.577,336.178,230.577,334.774Z" fill="#7b7b7b"/>
      <path id="Path_45" data-name="Path 45" d="M235.377,334.809v2.375h-.532l-.078-.538a1.972,1.972,0,0,1-1.367.6.93.93,0,0,1-1.044-.964v-.356c0-.545.35-.853.968-.853H234.7v-.265c-.007-.419-.154-.553-.68-.553-.336,0-.919.042-1.451.084l-.063-.5a11.245,11.245,0,0,1,1.661-.161C234.957,333.684,235.377,333.949,235.377,334.809Zm-2.334,1.39c0,.336.154.476.5.476a1.83,1.83,0,0,0,1.156-.482v-.608h-1.248c-.316.013-.406.174-.406.433Z" fill="#7b7b7b"/>
      <path id="Path_46" data-name="Path 46" d="M239.3,333.8l-.057.489c-.427-.013-.869-.035-1.3-.035-.61,0-.8.007-.8.378,0,.328.161.356.483.447l.968.237c.553.147.8.363.8.957,0,.839-.463.985-1.487.985a9.3,9.3,0,0,1-1.36-.1l.05-.5c.315.029.729.035,1.17.035.751,0,.968-.07.968-.419,0-.314-.2-.349-.519-.433l-.954-.237a.868.868,0,0,1-.778-.971c0-.775.4-.957,1.353-.95A11.027,11.027,0,0,1,239.3,333.8Z" fill="#7b7b7b"/>
      <path id="Path_47" data-name="Path 47" d="M242.888,332.322a.176.176,0,0,1,.2.195v.391c0,.133-.062.2-.2.2h-.322c-.134,0-.2-.07-.2-.2v-.391a.176.176,0,0,1,.2-.195Zm-.5,4.862v-3.409h.674v3.409Z" fill="#7b7b7b"/>
      <path id="Path_48" data-name="Path 48" d="M247.48,334.626v2.558H246.8v-2.362c0-.433-.112-.566-.435-.566a2.591,2.591,0,0,0-1.268.511l.006,2.417h-.681v-3.409H245l.041.517a2.594,2.594,0,0,1,1.515-.608A.838.838,0,0,1,247.48,334.626Z" fill="#7b7b7b"/>
      <path id="Path_49" data-name="Path 49" d="M249.736,336.2c0,.322.119.434.448.434h.5l.077.524a3.806,3.806,0,0,1-.807.091c-.581,0-.891-.343-.891-.957V334.3h-.623v-.489l.623-.034v-1h.674v1h1.058v.523h-1.058Z" fill="#7b7b7b"/>
      <path id="Path_50" data-name="Path 50" d="M254.564,336.618l.063.448a4.027,4.027,0,0,1-1.353.2c-1.192,0-1.647-.482-1.647-1.8,0-1.348.475-1.789,1.584-1.789,1.066,0,1.5.4,1.5,1.146,0,.615-.259.978-.834.978h-1.536c.07.74.364.895,1.023.895A11.95,11.95,0,0,0,254.564,336.618Zm-2.236-1.334h1.367c.287,0,.337-.245.337-.454-.008-.412-.2-.573-.786-.573C252.58,334.257,252.355,334.473,252.328,335.284Z" fill="#7b7b7b"/>
      <path id="Path_51" data-name="Path 51" d="M257.963,334.32h-.211a2.994,2.994,0,0,0-1.228.391v2.473h-.679v-3.409h.526l.069.523a2.43,2.43,0,0,1,1.438-.615h.161Z" fill="#7b7b7b"/>
      <path id="Path_52" data-name="Path 52" d="M261.8,334.809v2.375h-.532l-.078-.538a1.974,1.974,0,0,1-1.368.6.93.93,0,0,1-1.044-.964v-.356c0-.545.35-.853.968-.853h1.374v-.265c-.007-.419-.154-.553-.68-.553-.337,0-.919.042-1.451.084l-.064-.5a11.253,11.253,0,0,1,1.663-.161C261.375,333.684,261.8,333.949,261.8,334.809Zm-2.335,1.39c0,.336.154.476.5.476a1.833,1.833,0,0,0,1.156-.482v-.608h-1.247c-.316.013-.406.174-.406.433Z" fill="#7b7b7b"/>
      <path id="Path_53" data-name="Path 53" d="M263.743,335.507a4.577,4.577,0,0,1,.035.531v1.146h-.68v-4.89h.68l.007,2.145a3.757,3.757,0,0,1-.042.58h.428l1.023-1.244h.785l-1.031,1.237a1.457,1.457,0,0,1-.252.251v.014a1.42,1.42,0,0,1,.252.293l1.144,1.614h-.785l-1.136-1.677Z" fill="#7b7b7b"/>
      <path id="Path_54" data-name="Path 54" d="M267.947,336.2c0,.322.12.434.449.434h.5l.078.524a3.8,3.8,0,0,1-.806.091c-.583,0-.891-.343-.891-.957V334.3h-.625v-.489l.625-.034v-1h.673v1h1.059v.523h-1.059Z" fill="#7b7b7b"/>
      <path id="Path_55" data-name="Path 55" d="M270.527,332.322a.176.176,0,0,1,.2.195v.391c0,.133-.062.2-.2.2H270.2a.177.177,0,0,1-.2-.2v-.391a.177.177,0,0,1,.2-.195Zm-.5,4.862v-3.409h.674v3.409Z" fill="#7b7b7b"/>
      <path id="Path_56" data-name="Path 56" d="M273.947,337.017a.25.25,0,0,1-.239.168h-.61a.24.24,0,0,1-.232-.168l-1.22-3.242h.723l.8,2.347c.064.189.127.391.19.587h.09c.07-.2.134-.4.2-.587l.792-2.347h.722Z" fill="#7b7b7b"/>
      <path id="Path_57" data-name="Path 57" d="M278.811,336.618l.063.448a4.027,4.027,0,0,1-1.353.2c-1.192,0-1.647-.482-1.647-1.8,0-1.348.476-1.789,1.584-1.789,1.067,0,1.5.4,1.5,1.146,0,.615-.259.978-.833.978h-1.536c.07.74.365.895,1.023.895A11.985,11.985,0,0,0,278.811,336.618Zm-2.237-1.334h1.367c.288,0,.337-.245.337-.454-.008-.412-.2-.573-.786-.573C276.827,334.257,276.6,334.473,276.574,335.284Z" fill="#7b7b7b"/>
      <path id="Path_58" data-name="Path 58" d="M285.357,337.184h-.519l-.071-.482a2.125,2.125,0,0,1-1.437.572c-1.073,0-1.514-.789-1.514-2.522,0-1.928.539-2.48,2.06-2.48a5.678,5.678,0,0,1,1.347.147l-.069.532c-.442-.042-.919-.056-1.235-.056-1.009,0-1.36.237-1.36,1.907,0,1.383.246,1.865.968,1.865a2.006,2.006,0,0,0,1.143-.426V334.4h.687Z" fill="#7b7b7b"/>
      <path id="Path_59" data-name="Path 59" d="M288.733,334.32h-.21a2.99,2.99,0,0,0-1.227.391v2.473h-.68v-3.409h.525l.071.523a2.43,2.43,0,0,1,1.437-.615h.162Z" fill="#7b7b7b"/>
      <path id="Path_60" data-name="Path 60" d="M292.686,337.184h-.54l-.049-.468a2.441,2.441,0,0,1-1.459.558.837.837,0,0,1-.932-.943v-2.556h.681v2.361c-.007.42.126.559.49.559a2.241,2.241,0,0,0,1.137-.454v-2.466h.673Z" fill="#7b7b7b"/>
      <path id="Path_61" data-name="Path 61" d="M297.073,334.626v2.558h-.68v-2.362c0-.433-.112-.566-.434-.566a2.591,2.591,0,0,0-1.269.511l.006,2.417h-.681v-3.409h.575l.042.517a2.594,2.594,0,0,1,1.514-.608A.838.838,0,0,1,297.073,334.626Z" fill="#7b7b7b"/>
      <path id="Path_62" data-name="Path 62" d="M301.362,337.184h-.533l-.055-.468a2.12,2.12,0,0,1-1.346.551c-.862,0-1.2-.628-1.2-1.8,0-1.342.435-1.782,1.3-1.782a2.351,2.351,0,0,1,1.177.308c-.02-.223-.027-.433-.027-.671v-1.026h.68Zm-1.7-.5a1.678,1.678,0,0,0,1.025-.426v-1.817a3.652,3.652,0,0,0-.982-.168c-.56,0-.771.217-.771,1.188S299.14,336.681,299.657,336.681Z" fill="#7b7b7b"/>
      <path id="Path_63" data-name="Path 63" d="M305.314,333.8l-.056.489c-.427-.013-.869-.035-1.3-.035-.609,0-.8.007-.8.378,0,.328.162.356.484.447l.967.237c.554.147.8.363.8.957,0,.839-.463.985-1.487.985a9.3,9.3,0,0,1-1.36-.1l.048-.5c.316.029.73.035,1.172.035.75,0,.968-.07.968-.419,0-.314-.2-.349-.52-.433l-.953-.237a.869.869,0,0,1-.779-.971c0-.775.4-.957,1.354-.95A11.01,11.01,0,0,1,305.314,333.8Z" fill="#7b7b7b"/>
      <path id="Path_64" data-name="Path 64" d="M307.486,336.2c0,.322.119.434.448.434h.5l.075.524a3.789,3.789,0,0,1-.8.091c-.583,0-.892-.343-.892-.957V334.3h-.623v-.489l.623-.034v-1h.674v1h1.058v.523h-1.058Z" fill="#7b7b7b"/>
      <path id="Path_65" data-name="Path 65" d="M312.5,337.184h-.54l-.048-.468a2.427,2.427,0,0,1-1.459.558.837.837,0,0,1-.933-.943v-2.556h.681v2.361c-.007.42.127.559.491.559a2.215,2.215,0,0,0,1.136-.454v-2.466h.673Zm-2.195-4.122c-.127,0-.182-.056-.182-.189V332.5a.167.167,0,0,1,.182-.189h.225a.167.167,0,0,1,.182.189v.377c0,.133-.055.189-.182.189Zm1.242,0c-.127,0-.183-.056-.183-.189V332.5a.168.168,0,0,1,.183-.189h.224a.177.177,0,0,1,.19.189v.377a.167.167,0,0,1-.19.189Z" fill="#7b7b7b"/>
      <path id="Path_66" data-name="Path 66" d="M316.436,333.859l-.092.433c-.315-.021-.686-.035-.925-.035-.778,0-1.045.273-1.045,1.223s.267,1.223,1.045,1.223a6.621,6.621,0,0,0,1.009-.077l.063.454a3.623,3.623,0,0,1-1.191.188c-1.2,0-1.633-.474-1.633-1.788s.442-1.8,1.633-1.8A3.488,3.488,0,0,1,316.436,333.859Z" fill="#7b7b7b"/>
      <path id="Path_67" data-name="Path 67" d="M318.192,335.507a4.581,4.581,0,0,1,.036.531v1.146h-.68v-4.89h.68l.007,2.145a3.756,3.756,0,0,1-.043.58h.429l1.023-1.244h.785l-1.03,1.237a1.438,1.438,0,0,1-.252.251v.014a1.4,1.4,0,0,1,.252.293l1.144,1.614h-.786l-1.135-1.677Z" fill="#7b7b7b"/>
      <path id="Path_68" data-name="Path 68" d="M324.649,335.5c0,1.32-.435,1.767-1.3,1.767a2.3,2.3,0,0,1-1.242-.342,5.718,5.718,0,0,1,.022.692v.957h-.674v-4.8h.561l.049.523a2.115,2.115,0,0,1,1.424-.615C324.311,333.684,324.649,334.333,324.649,335.5Zm-.7-.006c0-.916-.195-1.223-.694-1.223a1.937,1.937,0,0,0-1.128.5V336.5a4.268,4.268,0,0,0,1.037.181C323.73,336.681,323.947,336.465,323.947,335.494Z" fill="#7b7b7b"/>
      <path id="Path_69" data-name="Path 69" d="M328.93,335.487c0,1.3-.442,1.788-1.633,1.788s-1.634-.489-1.634-1.788.443-1.8,1.634-1.8S328.93,334.18,328.93,335.487Zm-2.558,0c0,.943.217,1.222.925,1.222s.926-.279.926-1.222-.217-1.23-.926-1.23S326.372,334.529,326.372,335.487Z" fill="#7b7b7b"/>
      <path id="Path_70" data-name="Path 70" d="M332.217,334.32h-.211a2.99,2.99,0,0,0-1.227.391v2.473h-.68v-3.409h.526l.069.523a2.431,2.431,0,0,1,1.437-.615h.162Z" fill="#7b7b7b"/>
      <path id="Path_71" data-name="Path 71" d="M334.156,336.2c0,.322.12.434.449.434h.5l.076.524a3.8,3.8,0,0,1-.806.091c-.583,0-.89-.343-.89-.957V334.3h-.625v-.489l.625-.034v-1h.672v1h1.06v.523h-1.06Z" fill="#7b7b7b"/>
      <path id="Path_72" data-name="Path 72" d="M339.049,334.809v2.375h-.533l-.077-.538a1.974,1.974,0,0,1-1.367.6.93.93,0,0,1-1.045-.964v-.356c0-.545.351-.853.968-.853h1.375v-.265c-.008-.419-.155-.553-.681-.553-.336,0-.919.042-1.451.084l-.063-.5a11.245,11.245,0,0,1,1.662-.161C338.628,333.684,339.049,333.949,339.049,334.809Zm-2.335,1.39c0,.336.155.476.5.476a1.836,1.836,0,0,0,1.158-.482v-.608h-1.249c-.316.013-.406.174-.406.433Z" fill="#7b7b7b"/>
      <path id="Path_73" data-name="Path 73" d="M341.031,336.2a.393.393,0,0,0,.449.434h.316l.076.524a2.166,2.166,0,0,1-.652.091.805.805,0,0,1-.863-.894v-4.059h.681Z" fill="#7b7b7b"/>
    </g>
    <path id="Path_74" data-name="Path 74" d="M148.413,307.387l-23.832-10.68,11.84-12.132,23.832,10.681Z" fill="#94b53b" opacity="0.4"/>
    <path id="Path_75" data-name="Path 75" d="M121.686,314.313l-23.832-10.68,11.84-12.132,23.832,10.681Z" fill="#94b53b" opacity="0.7"/>
    <path id="Path_76" data-name="Path 76" d="M119.4,332.273l-23.832-10.68,11.84-12.132,23.832,10.682Z" fill="#94b53b"/>
    <rect id="Rectangle_3" data-name="Rectangle 3" width="2.273" height="9.332" transform="translate(272.868 310.4)" fill="#2e2e2e"/>
  </g>
</svg>
